<svg width="256" height="256" viewBox="0 0 256 256" fill="none" xmlns="http://www.w3.org/2000/svg">
  <defs>
    <linearGradient id="bg" x1="28" y1="20" x2="228" y2="236" gradientUnits="userSpaceOnUse">
      <stop stop-color="#152232"/>
      <stop offset="1" stop-color="#070B11"/>
    </linearGradient>
    <linearGradient id="db" x1="46" y1="56" x2="184" y2="204" gradientUnits="userSpaceOnUse">
      <stop stop-color="#2CF4F4"/>
      <stop offset="1" stop-color="#126CF3"/>
    </linearGradient>
    <linearGradient id="panel" x1="116" y1="134" x2="220" y2="216" gradientUnits="userSpaceOnUse">
      <stop stop-color="#12273A"/>
      <stop offset="1" stop-color="#07111E"/>
    </linearGradient>
    <filter id="glow" x="10" y="20" width="220" height="226" filterUnits="userSpaceOnUse" color-interpolation-filters="sRGB">
      <feGaussianBlur stdDeviation="13"/>
    </filter>
    <filter id="shadow" x="86" y="112" width="152" height="122" filterUnits="userSpaceOnUse" color-interpolation-filters="sRGB">
      <feDropShadow dx="0" dy="10" stdDeviation="8" flood-color="#000000" flood-opacity="0.45"/>
    </filter>
  </defs>

  <rect x="10" y="10" width="236" height="236" rx="46" fill="url(#bg)"/>
  <path d="M31 58C73 17 163 22 212 75C177 54 100 49 31 58Z" fill="#25364B" opacity="0.45"/>
  <ellipse cx="111" cy="143" rx="70" ry="84" fill="#00B8FF" opacity="0.38" filter="url(#glow)"/>

  <path d="M46 76H184V192C184 207.464 153.108 220 115 220C76.8924 220 46 207.464 46 192V76Z" fill="url(#db)"/>
  <ellipse cx="115" cy="76" rx="69" ry="24" fill="#34F3F4"/>
  <ellipse cx="115" cy="76" rx="69" ry="24" stroke="#B9FFFF" stroke-width="5"/>
  <path d="M46 116C46 129.255 76.8924 140 115 140C153.108 140 184 129.255 184 116" stroke="#87F9FF" stroke-width="5"/>
  <path d="M46 157C46 170.255 76.8924 181 115 181C153.108 181 184 170.255 184 157" stroke="#62EAFE" stroke-width="5"/>
  <path d="M46 192C46 207.464 76.8924 220 115 220C153.108 220 184 207.464 184 192" stroke="#0A3D90" stroke-opacity="0.45" stroke-width="5"/>
  <path d="M70 78C91 88 139 88 160 78" stroke="#1178EA" stroke-opacity="0.4" stroke-width="4" stroke-linecap="round"/>

  <g filter="url(#shadow)">
    <rect x="104" y="126" width="116" height="90" rx="16" fill="url(#panel)" stroke="#28E3F5" stroke-width="4"/>
    <path d="M145 150L126 171L145 192" stroke="#F4FAFF" stroke-width="8" stroke-linecap="round" stroke-linejoin="round"/>
    <path d="M189 150L208 171L189 192" stroke="#F4FAFF" stroke-width="8" stroke-linecap="round" stroke-linejoin="round"/>
    <path d="M172 145L160 199" stroke="#29ECEC" stroke-width="9" stroke-linecap="round"/>
  </g>

  <path d="M215 168H240L224 196H244L202 242L216 207H197L215 168Z" fill="#FFB91D" stroke="#FFE066" stroke-width="3" stroke-linejoin="round"/>
  <path d="M221 175L211 202L227 198" stroke="#FFF288" stroke-width="3" stroke-linecap="round" opacity="0.75"/>
</svg>
