<svg width="256" height="256" viewBox="0 0 256 256" fill="none" xmlns="http://www.w3.org/2000/svg">
  <defs>
    <linearGradient id="db" x1="31" y1="44" x2="174" y2="220" gradientUnits="userSpaceOnUse"><stop stop-color="#50FFF7"/><stop offset="0.55" stop-color="#18B7FF"/><stop offset="1" stop-color="#1257E2"/></linearGradient>
    <linearGradient id="panel" x1="96" y1="119" x2="223" y2="217" gradientUnits="userSpaceOnUse"><stop stop-color="#182C42"/><stop offset="1" stop-color="#06111F"/></linearGradient>
    <filter id="glow" x="0" y="0" width="256" height="256" filterUnits="userSpaceOnUse"><feGaussianBlur stdDeviation="12"/></filter>
  </defs>
  <circle cx="104" cy="130" r="104" fill="#20D6FF" opacity="0.12" filter="url(#glow)"/>
  <path d="M31 71H174V196C174 210.4 141.98 222 102 222C62.02 222 31 210.4 31 196V71Z" fill="url(#db)"/>
  <ellipse cx="102" cy="71" rx="71" ry="27" fill="#50FFF7" stroke="#E5FFFF" stroke-width="7"/>
  <path d="M31 117C31 130.8 62.8 142 102 142C141.2 142 174 130.8 174 117" stroke="#A8FCFF" stroke-width="7" stroke-linecap="round"/>
  <path d="M31 161C31 174.8 62.8 186 102 186C141.2 186 174 174.8 174 161" stroke="#49E8FF" stroke-width="7" stroke-linecap="round"/>
  <rect x="96" y="119" width="127" height="98" rx="17" fill="url(#panel)" stroke="#36E8F8" stroke-width="6"/>
  <path d="M145 142L122 167L145 192M184 142L207 167L184 192" stroke="#F8FCFF" stroke-width="10" stroke-linecap="round" stroke-linejoin="round"/>
  <path d="M169 137L156 197" stroke="#2EF0EC" stroke-width="11" stroke-linecap="round"/>
  <path d="M216 166H243L226 195H247L199 246L214 208H194L216 166Z" fill="#FFB619"/>
</svg>
